<?xml version="1.0" encoding="utf-8"?>
<!DOCTYPE svg PUBLIC "-//W3C//DTD SVG 1.1//EN" "http://www.w3.org/Graphics/SVG/1.1/DTD/svg11.dtd">
<svg version="1.1" id="Layer_1" xmlns="http://www.w3.org/2000/svg" xmlns:xlink="http://www.w3.org/1999/xlink" x="0px" y="0px"
	 viewBox="0 0 1173.6504 1765.5885" enable-background="new 0 0 1173.6504 1765.5885" xml:space="preserve">
<g>
	<path d="M665.2675,148.185c-0.2303,1.3009,1.6464,1.3925,1.181,2.6709c-0.224,0.0463-0.7239,0.2308-0.7731,0.148
		c-2.9425-4.9616-6.5837-0.065-9.8331-0.6397c-0.2031-0.0359-0.9948,1.2003-0.8405,1.5117c1.9897,4.0153-0.18,8.8518,2.5995,12.71
		c1.2811,1.7781,1.8506,3.892,2.1796,6.0577c2.2742,14.9747,5.363,29.8565,5.2342,45.1064
		c-0.0177,2.0946,0.7882,3.8785,1.5881,5.7119c3.3346,7.6431,6.3044,15.403,7.6462,23.6937
		c1.0287,6.3563,0.5051,12.5067-1.3019,18.7421c-1.4172,4.8902-2.2507,9.8442-4.7848,14.4533
		c-1.6394,2.9819,0.2133,6.3598,2.2428,8.7774c8.1686,9.7307,11.6376,21.5469,15.455,33.2751
		c2.5735,7.9069,5.6719,15.6412,8.3849,23.5047c3.8301,11.1011-0.1969,19.3136-11.2432,23.3147
		c-6.1092,2.2128-12.3849,2.0776-18.7534,1.739c-3.1434-0.1671-7.2783-1.3798-9.0903,2.089
		c-1.7477,3.3457,1.0892,6.2203,3.0328,8.9465c5.1597,7.2377,4.7192,18.6365-0.8867,25.2027
		c-2.4476,2.8668-6.38,3.173-9.0758,6.2919c-6.7518,7.8115-10.6895,16.0216-8.2077,26.4309c1.1,4.6136,1.1975,9.2787,0.7994,13.9169
		c-1.6259,18.941-9.7168,25.4681-27.1536,29.3304c-3.7076,0.8212-7.1885-0.2227-10.5458-2.0663
		c-6.2104-3.4108-8.6222-2.9928-13.802,1.8141c-2.5632,2.3787-5.04,4.8641-7.7354,7.0833
		c-3.2194,2.6506-6.8969,4.0336-11.149,2.8262c-3.493-0.9918-6.5844,0.3962-9.6273,1.7131
		c-6.874,2.9752-13.6373,6.0892-21.2385,7.0396c-4.5078,0.5636-6.6998,4.7933-3.811,7.9765
		c7.392,8.1454,5.4121,16.8083,2.8624,25.7814c-0.7734,2.7218-1.1069,5.6222-2.235,8.179
		c-2.5921,5.8743-1.3631,10.5137,3.5146,14.5464c7.3018,6.0369,10.5009,14.4744,12.8151,23.2425
		c2.4256,9.1909,4.3712,19.1136,9.436,26.6691c7.6329,11.3862,6.1907,23.416,7.0318,35.5057
		c0.3574,5.1368,0.6016,10.225,2.1349,15.2725c1.7819,5.8655,0.2681,11.6269-2.897,16.7563
		c-2.0707,3.3558-1.5819,5.7959,1.4149,8.1143c3.4233,2.6484,6.563,5.71,10.1691,8.0668
		c11.535,7.5386,19.5107,17.8901,23.0058,31.0378c9.5367,35.8751,27.6505,67.6533,46.2114,99.283
		c6.4069,10.9178,12.1658,22.1893,16.9611,33.9293c0.5002,1.2246,1.0607,2.466,1.8229,3.5361
		c12.6011,17.6912,22.5361,36.8171,31.1378,56.723c4.7524,10.9977,10.2779,21.6592,15.3093,32.5396
		c3.5659,7.7113,6.6127,15.6086,8.3889,23.9854c0.7166,3.3796,1.9755,6.7504,3.5751,9.8188
		c8.2336,15.7925,15.894,31.9552,25.2081,47.0946c11.7823,19.1512,18.4158,39.6858,21.1179,61.7767
		c0.5434,4.4425,1.3116,8.943,2.6945,13.1825c5.5825,17.1149,10.1852,34.4504,13.1625,52.2206
		c1.0524,6.2814,3.9161,11.9005,6.6541,17.6531c4.3013,9.0369,8.5569,18.2487,8.8317,28.6326
		c0.0688,2.6,0.8193,4.9591,4.5037,4.0795c1.4053-0.3353,3.1757-0.4023,4.4468,0.1603c10.5018,4.6482,22.4109,4.5616,32.7009,9.6952
		c3.585,1.7885,7.5792,1.4984,11.1806,3.7532c6.5469,4.0988,9.3381,10.9326,13.584,16.6364c1.6481,2.214,2.6163,1.825,3.6169,0.6584
		c6.3008-7.3448,15.1903-9.2233,23.8486-11.5894c5.1733-1.4135,9.1956-4.5948,12.9919-8.1318
		c4.015-3.7407,8.5006-6.302,14.1166-6.7526c5.7966-0.4651,10.1538-3.887,14.3577-7.5034
		c4.7872-4.1183,9.2111-8.7666,15.4008-10.8727c1.6944-0.5764,1.9846-1.5443,1.3663-3.0514
		c-0.4415-1.076-0.8984-2.149-1.2675-3.2505c-0.6672-1.991-3.7534-4.1586-2.5038-5.4242c2.2328-2.2615,2.5991-5.7745,5.6259-7.3572
		c3.9318-2.0559,1.0227-5.7614,1.8383-8.5919c-3.1388-0.7831-1.8219-3.3129-2.1573-5.2743
		c-1.0125-5.92-2.8988-11.1594-6.3599-16.5282c-5.1761-8.0293-12.2408-15.3412-13.5703-25.6677
		c-0.5635-4.3765-2.7605-8.5238-3.9643-12.8451c-0.5678-2.0382-2.1925-2.2816-3.6302-2.9915
		c-10.1345-5.0021-12.5435-11.3417-8.2817-21.5255c0.6403-1.5302,1.8649-2.3274,3.0865-3.1357
		c10.8196-7.1606,21.5652-14.4349,33.8179-19.0917c4.0583-1.5425,6.8605-5.1436,10.815-7.0648
		c13.5353-6.5758,27.7926-11.2649,42.1169-15.5476c6.8885-2.0594,14.4681-1.9458,21.7596-2.4686
		c4.4912-0.322,7.6326,1.3494,9.1156,6.3585c1.489,5.0294,2.1368,10.4489,5.3662,14.9166c1.0973,1.5181-0.3199,3.2451-0.199,4.8336
		c0.1785,2.3438-5.3447,6.0144,1.5563,7.2913c0.4052,0.075,2.9718,4.7797,3.5023,7.6602c0.9343,5.0734,3.424,9.332,6.2572,13.4766
		c2.4729,3.6173,4.5277,7.4437,4.6741,11.9276c0.0822,2.5173,2.092,3.6732,3.2256,5.4443c2.3269,3.6356,5.3198,7.0269,0.6206,11.275
		c-2.3076,2.0863-0.3486,3.3749,1.813,4.1638c0.984,0.3591,1.9169,1.267,1.2494,2.2926c-0.8545,1.3127-1.5552,0.043-2.3092-0.5093
		c-2.8719-2.1039-5.4705-1.0718-8.4659,0.4656c1.7925,2.3378,3.8604,2.0923,5.7368,2.0117
		c4.4634-0.1913,5.6516,1.8253,4.4447,5.9017c-0.4509,1.5232-1.0702,3.1652,0.1616,5.2018
		c3.7103-2.5466,7.381-5.0442,11.0278-7.5764c2.7813-1.9312,4.3256-1.5955,5.9115,1.8234
		c3.2886,7.0889,7.2874,13.8448,10.85,20.8114c2.4915,4.8718,3.845,9.9746,1.7009,15.3917
		c-0.9855,2.4894-2.0178,4.5804-5.3013,5.204c-4.2827,0.8134-3.3783,4.5923-3.1946,7.6908c0.2091,3.5278,2.2854,4.0219,5.173,3.1002
		c2.36-0.7532,3.278,0.616,3.9869,2.5378c3.9794,10.7892,8.3004,21.3633,14.9321,30.9377
		c3.2813,4.7374,0.8423,12.9197-3.673,16.8159c-2.5013,2.1583,0.8185,3.6812,1.1898,5.562
		c0.2389,1.2108,1.0284,2.1627,2.5018,1.0085c1.3131-1.0289,2.0007-3.9414,4.114-2.54c1.4738,0.9774,0.4413,3.4418,0.4688,5.2469
		c0.0049,0.3219,0.1047,0.6423,0.2422,1.4304c3.3038-1.1042,6.6924-1.8761,9.7332-3.3602c2.7332-1.3344,4.7343-0.7751,5.8317,1.5941
		c2.2938,4.9523,4.552,9.9877,6.069,15.2085c0.9274,3.1913-0.5227,6.5652-2.1263,9.5618c-1.584,2.9602-3.4912,5.7476-5.9948,7.9502
		c-30.1184,26.4968-64.1879,42.6586-105.3811,39.9376c-8.3268-0.5499-10.4578-2.5486-11.0074-11.0077
		c-0.3359-5.1704-3.2402-10.811,2.0026-15.3414c0.9995-0.8638,0.1123-1.746-0.3514-2.624c-0.6696-1.2677-0.907-2.7318,0.6991-3.4156
		c3.1993-1.3623,2.6388-2.9442,1.4873-5.7911c-1.5835-3.9147-3.5498-1.3854-5.4308-1.1313
		c-1.8167,0.2454-3.4888,1.488-4.4175-1.7543c-3.3978-11.8624-8.3623-23.157-13.3962-34.4004
		c-1.1293-2.5225-1.4462-4.3666,1.7169-5.3915c1.2578-0.4075,3.1617-1.4019,2.1665-2.6213
		c-1.5649-1.9175-0.4589-5.6696-3.9269-6.056c-7.0719-0.7877-13.8623-2.5753-20.5366-5.0052
		c-4.1437-1.5085-7.4742-1.1498-9.8092,3.6611c-3.2623,6.7212-9.4384,9.6929-16.6851,10.1495
		c-3.0459,0.1919-5.2575,1.3889-7.4962,3.2831c-5.4493,4.6111-11.1176,8.3123-18.4324,10.3052
		c-5.8638,1.5974-11.1444,6.3478-15.9302,10.5558c-3.5607,3.1312-6.9366,6.2126-11.4732,7.652
		c-3.1338,0.9941-4.0443,2.481-2.9891,5.8489c1.9369,6.1824,3.3256,12.5371,4.9301,18.8231
		c1.594,6.2449,0.0734,11.1654-5.264,15.2886c-6.0905,4.705-12.6256,7.6796-20.2173,9.1101
		c-7.0673,1.3318-13.688,3.9264-15.843,12.1985c-0.964,3.7004-2.8456,7.108-5.1343,10.2218
		c-3.5697,4.8564-8.2427,7.6638-14.4089,7.6454c-1.4999-0.0044-3.0002-0.0101-4.4997,0.017
		c-7.9808,0.1444-7.546,0.1715-7.7719,7.8967c-0.4211,14.397,1.9985,28.5676,2.7385,42.8634
		c0.2592,5.0089-0.8267,10.1122-0.2529,14.922c0.5204,4.3623-1.2108,8.7993,1.269,13.3013
		c1.6172,2.9358,0.8574,7.1665,1.217,10.8118c2.1915,22.2095,5.0734,44.3668,4.9204,66.751
		c-0.0195,2.8452,0.0018,5.5966-1.6288,8.1688c-1.3147,2.0739-0.9761,4.5397-0.6492,6.8414
		c4.3984,30.9648,3.9774,62.1523,3.8478,93.2852c-0.045,10.8198,1.7692,21.4216,1.7984,32.1887
		c0.061,22.4971-1.454,44.9756-0.6801,67.4778c0.6014,17.4862,0.9761,34.9838,1.8797,52.4541
		c0.261,5.0454-1.3362,5.9407-6.0166,5.9376c-179.8254-0.1185-359.6509-0.1002-539.4764-0.1
		c-85.8295,0.0001-171.659,0.0004-257.4886-0.0004c-6.5009,0-6.557-0.007-6.1188-6.2429
		c1.799-25.6042,5.6089-50.9849,8.6151-76.4535c1.8539-15.7058,1.3009-31.8286,5.6306-47.0609
		c3.2732-11.5153,1.3083-23.1232,3.3352-34.5502c4.5681-25.7532,11.0604-51.0652,16.9422-76.5205
		c2.0604-8.9167,3.5816-17.9459,3.5439-27.1847c-0.0114-2.7861,0.634-5.6348,1.3564-8.3544
		c6.4178-24.1611,10.3742-48.7856,13.5713-73.5256c1.6062-12.4297,5.6087-24.3455,7.3195-36.6902
		c5.3548-38.6383,8.0955-77.4503,5.6666-116.4628c-1.2742-20.4667-5.3499-40.598-8.148-60.8829
		c-3.8251-27.7297-7.3479-55.4897-5.9058-83.6006c0.4453-8.681-0.352-17.2953-1.4507-25.9124
		c-0.9687-7.598-1.6725-15.2539-1.3513-22.9331c0.9444-22.5771-1.4067-44.8964-4.6781-67.1934
		c-2.9585-20.1642-3.012-40.552-3.0029-60.865c0.0153-34.323,0.8533-68.6448,1.0737-102.9689
		c0.1739-27.0793,4.8139-53.3173,13.5237-78.9126c16.4551-48.3563,32.1141-97.0008,55.5998-142.6371
		c12.5782-24.4413,28.5366-46.4578,49.2929-64.2158c10.4255-8.9194,16.9462-19.3394,22.0218-31.318
		c4.9181-11.6071,12.7536-19.2384,25.7343-20.9141c2.7287-0.3522,5.3935-1.6853,7.932-2.8937
		c2.7462-1.3073,5.6807-2.7281,2.7138-6.6563c-1.1342-1.5017,0.0127-3.1788,0.7375-4.6842
		c9.7141-20.1777,22.0095-38.811,34.5178-57.2966c4.9659-7.339,12.0327-10.9528,21.0971-9.2819
		c2.6634,0.491,3.9128-0.511,5.0294-2.739c4.1812-8.3423,8.215-16.7446,11.2708-25.5755c0.7741-2.237,1.2481-4.5608,4.2182-4.8825
		c0.8285-0.0898,1.7872-0.5233,1.8677-1.4202c0.6538-7.2839,4.7209-14.4033,0.6198-21.9393
		c-1.5634-2.8728-2.307-6.2218-3.2065-9.4152c-0.5977-2.122-1.1248-4.3041-2.8423-5.7221
		c-5.7837-4.7754-8.0165-11.304-9.2466-18.3152c-0.8234-4.6934-3.1656-7.7174-7.2763-10.5552
		c-10.1191-6.9857-15.5403-17.4664-16.9508-29.4555c-2.7904-23.7182-1.2989-47.373,5.3107-70.3051
		c5.7817-20.0597,12.4457-39.8484,16.6314-60.357c1.4301-7.0066,4.1324-13.6947,7.0454-20.2461
		c0.674-1.5158,1.1909-3.3583,2.3697-4.3494c5.8118-4.8864,7.2392-12.087,10.0817-18.5104
		c3.7088-8.3807,8.0017-16.1636,16.8928-20.143c0.7785-0.3485,1.9405-0.9421,1.5207-1.6216
		c-2.4554-3.9742,1.2999-5.414,3.0764-7.326c11.4516-12.3252,24.6781-22.5173,39.8383-29.6993
		c5.5638-2.6358,11.7776-3.7941,16.6338-8.0823c1.0356-0.9145,3.0093-2.0254,4.5157,0.6623
		c1.1251,2.0075,2.6371-0.2871,3.4681-1.0154c4.6533-4.0782,9.4571-2.9189,14.3106-0.7067
		c1.1315,0.5157,2.3593,1.1497,3.2491,0.2886c3.4361-3.3251,7.9967-3.8725,12.2388-4.8068
		c6.0443-1.3312,12.2563-1.9048,18.4012-2.7697c0.801-0.1127,2.019,0.3141,2.3853-0.0965c4.8535-5.44,11.4044-2.678,17.1604-3.5995
		c1.5829-0.2535,3.658-0.743,4.2005,2.1128c0.3808,2.0047,1.7288,0.6569,2.631,0.1389c4.2253-2.426,8.5649-2.6063,12.8836-0.4273
		c1.4871,0.7503,2.7717,0.2799,4.2032,0.2959c6.738,0.0751,13.1867-0.137,19.9532,3.0054
		c6.3513,2.9496,13.1887,7.4152,21.3487,4.9708c2.2155-0.6637,5.0686-0.0179,7.1612,2.0754
		c1.4745,1.475,3.4172,3.5524,5.1285,3.5315c6.7099-0.0819,12.064,3.4109,17.6526,6.0676
		c6.29,2.9901,12.3913,6.4806,18.2417,10.2678c8.8898,5.7549,17.514,11.9226,26.1915,18c1.1251,0.788,2.2445,0.3182,3.3182,0.6185
		c2.0394,0.5704,4.585,0.2132,4.3398,3.9452c-0.0765,1.1643,3.0042,2.4022,4.4253,3.8212
		c7.246,7.2352,14.8358,14.1882,21.4577,21.9618c3.6264,4.2572,8.6715,6.8526,11.4951,12.2182
		c3.4175,6.4941,3.5423,14.914-1.7903,20.0436C667.0334,150.9395,667.1937,147.0167,665.2675,148.185z"/>
</g>
</svg>
